# xmcd
#
# Track frame offsets:
#	151
#	1637
#	16348
#	26206
#	39601
#	50176
#	62161
#	75151
#	86745
#	101577
#	113932
#	124785
#
# Disc length: 1953 seconds
#
# Revision: 1
# Processed by: cddbd v1.5.1PL0 Copyright (c) Steve Scherf et al.
# Submitted via: MusicWizard 7.1.1b
#
DISCID=92079f0c
DTITLE=Waylon Jennings - A Man Called Hoss - An Audio-Biography By Waylon Jennings And Roger Murra
DTITLE=h
DYEAR=1987
DGENRE=Country
TTITLE0=Prologue
TTITLE1=Intro
TTITLE2=Littlefield
TTITLE3=You'll Never Take Texas Out Of Me
TTITLE4=You Went Out With Rock'n'roll
TTITLE5=A Love Song I Can't Sing Anymore
TTITLE6=If Ole Hank Could Only See Us Now
TTITLE7=Rough And Rowdy Days
TTITLE8=I'm Living Proof (There's Life After You)
TTITLE9=You Deserve The Stars In My Crown
TTITLE10=Turn It All Around
TTITLE11=Where Do We Go From Here
EXTD=Released in 1987 by MCA Records Nashville\nupc 02292551321
EXTT0=
EXTT1=
EXTT2=
EXTT3=
EXTT4=
EXTT5=
EXTT6=
EXTT7=
EXTT8=
EXTT9=
EXTT10=
EXTT11=
PLAYORDER=
